<svg width="770" height="729" viewBox="0 0 770 729" fill="none" xmlns="http://www.w3.org/2000/svg">
<g filter="url(#filter0_d_3_9233)">
<g filter="url(#filter1_d_3_9233)">
<path d="M1 3.5C1 2.11929 2.11929 1 3.5 1H64.4V111.95H3.5C2.11929 111.95 1 110.831 1 109.45V3.5Z" fill="#EDF2FA"/>
<rect x="64.3999" y="1" width="63.4" height="110.95" fill="#D7E3FC"/>
<rect x="127.8" y="1" width="63.4" height="110.95" fill="#CCDBFD"/>
<rect x="191.2" y="1" width="63.4" height="110.95" fill="#C1D3FE"/>
<path d="M254.6 1H315.5C316.88 1 318 2.11929 318 3.5V109.45C318 110.831 316.88 111.95 315.5 111.95H254.6V1Z" fill="#ABC4FF"/>
</g>
<g filter="url(#filter2_d_3_9233)">
<path d="M1 154.075C1 152.694 2.11929 151.575 3.5 151.575H64.4V262.525H3.5C2.11929 262.525 1 261.406 1 260.025V154.075Z" fill="#E4BABE"/>
<rect x="64.3999" y="151.575" width="63.4" height="110.95" fill="#FCF1EF"/>
<rect x="127.8" y="151.575" width="63.4" height="110.95" fill="#E8D8C9"/>
<rect x="191.2" y="151.575" width="63.4" height="110.95" fill="#CED3D7"/>
<path d="M254.6 151.575H315.5C316.88 151.575 318 152.694 318 154.075V260.025C318 261.406 316.88 262.525 315.5 262.525H254.6V151.575Z" fill="#5E606C"/>
</g>
<g filter="url(#filter3_d_3_9233)">
<path d="M1 3.5C1 2.11929 2.11929 1 3.5 1H64.4V111.95H3.5C2.11929 111.95 1 110.831 1 109.45V3.5Z" fill="#EDF2FA"/>
<rect x="64.3999" y="1" width="63.4" height="110.95" fill="#D7E3FC"/>
<rect x="127.8" y="1" width="63.4" height="110.95" fill="#CCDBFD"/>
<rect x="191.2" y="1" width="63.4" height="110.95" fill="#C1D3FE"/>
<path d="M254.6 1H315.5C316.88 1 318 2.11929 318 3.5V109.45C318 110.831 316.88 111.95 315.5 111.95H254.6V1Z" fill="#ABC4FF"/>
</g>
<g filter="url(#filter4_d_3_9233)">
<path d="M1 154.075C1 152.694 2.11929 151.575 3.5 151.575H64.4V262.525H3.5C2.11929 262.525 1 261.406 1 260.025V154.075Z" fill="#E4BABE"/>
<rect x="64.3999" y="151.575" width="63.4" height="110.95" fill="#FCF1EF"/>
<rect x="127.8" y="151.575" width="63.4" height="110.95" fill="#E8D8C9"/>
<rect x="191.2" y="151.575" width="63.4" height="110.95" fill="#CED3D7"/>
<path d="M254.6 151.575H315.5C316.88 151.575 318 152.694 318 154.075V260.025C318 261.406 316.88 262.525 315.5 262.525H254.6V151.575Z" fill="#5E606C"/>
</g>
<g filter="url(#filter5_d_3_9233)">
<path d="M1 305.607C1 304.226 2.11929 303.107 3.5 303.107H64.4V414.057H3.5C2.11929 414.057 1 412.937 1 411.557V305.607Z" fill="#CAD2C5"/>
<rect x="64.3999" y="303.107" width="63.4" height="110.95" fill="#84A98C"/>
<rect x="127.8" y="303.107" width="63.4" height="110.95" fill="#52796F"/>
<rect x="191.2" y="303.107" width="63.4" height="110.95" fill="#354F52"/>
<path d="M254.6 303.107H315.5C316.88 303.107 318 304.226 318 305.607V411.557C318 412.937 316.88 414.057 315.5 414.057H254.6V303.107Z" fill="#2F3E46"/>
</g>
<g filter="url(#filter6_d_3_9233)">
<path d="M441 3.5C441 2.11929 442.119 1 443.5 1H504.4V111.95H443.5C442.119 111.95 441 110.831 441 109.45V3.5Z" fill="#CAD2C5"/>
<rect x="504.4" y="1" width="63.4" height="110.95" fill="#84A98C"/>
<rect x="567.8" y="1" width="63.4" height="110.95" fill="#52796F"/>
<rect x="631.2" y="1" width="63.4" height="110.95" fill="#354F52"/>
<path d="M694.6 1H755.5C756.88 1 758 2.11929 758 3.5V109.45C758 110.831 756.88 111.95 755.5 111.95H694.6V1Z" fill="#2F3E46"/>
</g>
<g filter="url(#filter7_d_3_9233)">
<path d="M1 456.181C1 454.801 2.11929 453.681 3.5 453.681H64.4V564.631H3.5C2.11929 564.631 1 563.512 1 562.131V456.181Z" fill="white"/>
<rect x="64.3999" y="453.681" width="63.4" height="110.95" fill="#84DCC6"/>
<rect x="127.8" y="453.681" width="63.4" height="110.95" fill="#A5FFD6"/>
<rect x="191.2" y="453.681" width="63.4" height="110.95" fill="#FFA69E"/>
<path d="M254.6 453.681H315.5C316.88 453.681 318 454.801 318 456.181V562.131C318 563.512 316.88 564.631 315.5 564.631H254.6V453.681Z" fill="#FF686B"/>
</g>
<g filter="url(#filter8_d_3_9233)">
<path d="M441 154.5C441 153.119 442.119 152 443.5 152H504.4V262.95H443.5C442.119 262.95 441 261.831 441 260.45V154.5Z" fill="white"/>
<rect x="504.4" y="152" width="63.4" height="110.95" fill="#84DCC6"/>
<rect x="567.8" y="152" width="63.4" height="110.95" fill="#A5FFD6"/>
<rect x="631.2" y="152" width="63.4" height="110.95" fill="#FFA69E"/>
<path d="M694.6 152H755.5C756.88 152 758 153.119 758 154.5V260.45C758 261.831 756.88 262.95 755.5 262.95H694.6V152Z" fill="#FF686B"/>
</g>
<g filter="url(#filter9_d_3_9233)">
<path d="M440 305.607C440 304.226 441.119 303.107 442.5 303.107H503.4V414.057H442.5C441.119 414.057 440 412.937 440 411.557V305.607Z" fill="#9B5DE5"/>
<rect x="503.4" y="303.107" width="63.4" height="110.95" fill="#F15BB5"/>
<rect x="566.8" y="303.107" width="63.4" height="110.95" fill="#FEE440"/>
<rect x="630.2" y="303.107" width="63.4" height="110.95" fill="#00BBF9"/>
<path d="M693.6 303.107H754.5C755.88 303.107 757 304.226 757 305.607V411.557C757 412.937 755.88 414.057 754.5 414.057H693.6V303.107Z" fill="#00F5D4"/>
</g>
<g filter="url(#filter10_d_3_9233)">
<path d="M440 456.181C440 454.801 441.119 453.681 442.5 453.681H503.4V564.631H442.5C441.119 564.631 440 563.512 440 562.131V456.181Z" fill="#E4BABE"/>
<rect x="503.4" y="453.681" width="63.4" height="110.95" fill="#FCF1EF"/>
<rect x="566.8" y="453.681" width="63.4" height="110.95" fill="#E8D8C9"/>
<rect x="630.2" y="453.681" width="63.4" height="110.95" fill="#CED3D7"/>
<path d="M693.6 453.681H754.5C755.88 453.681 757 454.801 757 456.181V562.131C757 563.512 755.88 564.631 754.5 564.631H693.6V453.681Z" fill="#5E606C"/>
</g>
<g filter="url(#filter11_d_3_9233)">
<path d="M440 607.713C440 606.332 441.119 605.213 442.5 605.213H503.4V716.163H442.5C441.119 716.163 440 715.044 440 713.663V607.713Z" fill="#EDF2FA"/>
<rect x="503.4" y="605.213" width="63.4" height="110.95" fill="#D7E3FC"/>
<rect x="566.8" y="605.213" width="63.4" height="110.95" fill="#CCDBFD"/>
<rect x="630.2" y="605.213" width="63.4" height="110.95" fill="#C1D3FE"/>
<path d="M693.6 605.213H754.5C755.88 605.213 757 606.332 757 607.713V713.663C757 715.044 755.88 716.163 754.5 716.163H693.6V605.213Z" fill="#ABC4FF"/>
</g>
<g filter="url(#filter12_d_3_9233)">
<path d="M1 608.5C1 607.119 2.11929 606 3.5 606H64.4V716.95H3.5C2.11929 716.95 1 715.831 1 714.45V608.5Z" fill="#9B5DE5"/>
<rect x="64.3999" y="606" width="63.4" height="110.95" fill="#F15BB5"/>
<rect x="127.8" y="606" width="63.4" height="110.95" fill="#FEE440"/>
<rect x="191.2" y="606" width="63.4" height="110.95" fill="#00BBF9"/>
<path d="M254.6 606H315.5C316.88 606 318 607.119 318 608.5V714.45C318 715.831 316.88 716.95 315.5 716.95H254.6V606Z" fill="#00F5D4"/>
</g>
</g>
<defs>
<filter id="filter0_d_3_9233" x="1" y="1" width="769" height="727.95" filterUnits="userSpaceOnUse" color-interpolation-filters="sRGB">
<feFlood flood-opacity="0" result="BackgroundImageFix"/>
<feColorMatrix in="SourceAlpha" type="matrix" values="0 0 0 0 0 0 0 0 0 0 0 0 0 0 0 0 0 0 127 0" result="hardAlpha"/>
<feOffset dx="6" dy="6"/>
<feGaussianBlur stdDeviation="3"/>
<feComposite in2="hardAlpha" operator="out"/>
<feColorMatrix type="matrix" values="0 0 0 0 0 0 0 0 0 0 0 0 0 0 0 0 0 0 0.25 0"/>
<feBlend mode="normal" in2="BackgroundImageFix" result="effect1_dropShadow_3_9233"/>
<feBlend mode="normal" in="SourceGraphic" in2="effect1_dropShadow_3_9233" result="shape"/>
</filter>
<filter id="filter1_d_3_9233" x="0" y="0" width="321" height="114.95" filterUnits="userSpaceOnUse" color-interpolation-filters="sRGB">
<feFlood flood-opacity="0" result="BackgroundImageFix"/>
<feColorMatrix in="SourceAlpha" type="matrix" values="0 0 0 0 0 0 0 0 0 0 0 0 0 0 0 0 0 0 127 0" result="hardAlpha"/>
<feOffset dx="1" dy="1"/>
<feGaussianBlur stdDeviation="1"/>
<feComposite in2="hardAlpha" operator="out"/>
<feColorMatrix type="matrix" values="0 0 0 0 0 0 0 0 0 0 0 0 0 0 0 0 0 0 0.25 0"/>
<feBlend mode="normal" in2="BackgroundImageFix" result="effect1_dropShadow_3_9233"/>
<feBlend mode="normal" in="SourceGraphic" in2="effect1_dropShadow_3_9233" result="shape"/>
</filter>
<filter id="filter2_d_3_9233" x="0" y="150.575" width="321" height="114.95" filterUnits="userSpaceOnUse" color-interpolation-filters="sRGB">
<feFlood flood-opacity="0" result="BackgroundImageFix"/>
<feColorMatrix in="SourceAlpha" type="matrix" values="0 0 0 0 0 0 0 0 0 0 0 0 0 0 0 0 0 0 127 0" result="hardAlpha"/>
<feOffset dx="1" dy="1"/>
<feGaussianBlur stdDeviation="1"/>
<feComposite in2="hardAlpha" operator="out"/>
<feColorMatrix type="matrix" values="0 0 0 0 0 0 0 0 0 0 0 0 0 0 0 0 0 0 0.25 0"/>
<feBlend mode="normal" in2="BackgroundImageFix" result="effect1_dropShadow_3_9233"/>
<feBlend mode="normal" in="SourceGraphic" in2="effect1_dropShadow_3_9233" result="shape"/>
</filter>
<filter id="filter3_d_3_9233" x="0" y="0" width="321" height="114.95" filterUnits="userSpaceOnUse" color-interpolation-filters="sRGB">
<feFlood flood-opacity="0" result="BackgroundImageFix"/>
<feColorMatrix in="SourceAlpha" type="matrix" values="0 0 0 0 0 0 0 0 0 0 0 0 0 0 0 0 0 0 127 0" result="hardAlpha"/>
<feOffset dx="1" dy="1"/>
<feGaussianBlur stdDeviation="1"/>
<feComposite in2="hardAlpha" operator="out"/>
<feColorMatrix type="matrix" values="0 0 0 0 0 0 0 0 0 0 0 0 0 0 0 0 0 0 0.25 0"/>
<feBlend mode="normal" in2="BackgroundImageFix" result="effect1_dropShadow_3_9233"/>
<feBlend mode="normal" in="SourceGraphic" in2="effect1_dropShadow_3_9233" result="shape"/>
</filter>
<filter id="filter4_d_3_9233" x="0" y="150.575" width="321" height="114.95" filterUnits="userSpaceOnUse" color-interpolation-filters="sRGB">
<feFlood flood-opacity="0" result="BackgroundImageFix"/>
<feColorMatrix in="SourceAlpha" type="matrix" values="0 0 0 0 0 0 0 0 0 0 0 0 0 0 0 0 0 0 127 0" result="hardAlpha"/>
<feOffset dx="1" dy="1"/>
<feGaussianBlur stdDeviation="1"/>
<feComposite in2="hardAlpha" operator="out"/>
<feColorMatrix type="matrix" values="0 0 0 0 0 0 0 0 0 0 0 0 0 0 0 0 0 0 0.25 0"/>
<feBlend mode="normal" in2="BackgroundImageFix" result="effect1_dropShadow_3_9233"/>
<feBlend mode="normal" in="SourceGraphic" in2="effect1_dropShadow_3_9233" result="shape"/>
</filter>
<filter id="filter5_d_3_9233" x="0" y="302.107" width="321" height="114.95" filterUnits="userSpaceOnUse" color-interpolation-filters="sRGB">
<feFlood flood-opacity="0" result="BackgroundImageFix"/>
<feColorMatrix in="SourceAlpha" type="matrix" values="0 0 0 0 0 0 0 0 0 0 0 0 0 0 0 0 0 0 127 0" result="hardAlpha"/>
<feOffset dx="1" dy="1"/>
<feGaussianBlur stdDeviation="1"/>
<feComposite in2="hardAlpha" operator="out"/>
<feColorMatrix type="matrix" values="0 0 0 0 0 0 0 0 0 0 0 0 0 0 0 0 0 0 0.25 0"/>
<feBlend mode="normal" in2="BackgroundImageFix" result="effect1_dropShadow_3_9233"/>
<feBlend mode="normal" in="SourceGraphic" in2="effect1_dropShadow_3_9233" result="shape"/>
</filter>
<filter id="filter6_d_3_9233" x="440" y="0" width="321" height="114.95" filterUnits="userSpaceOnUse" color-interpolation-filters="sRGB">
<feFlood flood-opacity="0" result="BackgroundImageFix"/>
<feColorMatrix in="SourceAlpha" type="matrix" values="0 0 0 0 0 0 0 0 0 0 0 0 0 0 0 0 0 0 127 0" result="hardAlpha"/>
<feOffset dx="1" dy="1"/>
<feGaussianBlur stdDeviation="1"/>
<feComposite in2="hardAlpha" operator="out"/>
<feColorMatrix type="matrix" values="0 0 0 0 0 0 0 0 0 0 0 0 0 0 0 0 0 0 0.25 0"/>
<feBlend mode="normal" in2="BackgroundImageFix" result="effect1_dropShadow_3_9233"/>
<feBlend mode="normal" in="SourceGraphic" in2="effect1_dropShadow_3_9233" result="shape"/>
</filter>
<filter id="filter7_d_3_9233" x="0" y="452.681" width="321" height="114.95" filterUnits="userSpaceOnUse" color-interpolation-filters="sRGB">
<feFlood flood-opacity="0" result="BackgroundImageFix"/>
<feColorMatrix in="SourceAlpha" type="matrix" values="0 0 0 0 0 0 0 0 0 0 0 0 0 0 0 0 0 0 127 0" result="hardAlpha"/>
<feOffset dx="1" dy="1"/>
<feGaussianBlur stdDeviation="1"/>
<feComposite in2="hardAlpha" operator="out"/>
<feColorMatrix type="matrix" values="0 0 0 0 0 0 0 0 0 0 0 0 0 0 0 0 0 0 0.25 0"/>
<feBlend mode="normal" in2="BackgroundImageFix" result="effect1_dropShadow_3_9233"/>
<feBlend mode="normal" in="SourceGraphic" in2="effect1_dropShadow_3_9233" result="shape"/>
</filter>
<filter id="filter8_d_3_9233" x="440" y="151" width="321" height="114.95" filterUnits="userSpaceOnUse" color-interpolation-filters="sRGB">
<feFlood flood-opacity="0" result="BackgroundImageFix"/>
<feColorMatrix in="SourceAlpha" type="matrix" values="0 0 0 0 0 0 0 0 0 0 0 0 0 0 0 0 0 0 127 0" result="hardAlpha"/>
<feOffset dx="1" dy="1"/>
<feGaussianBlur stdDeviation="1"/>
<feComposite in2="hardAlpha" operator="out"/>
<feColorMatrix type="matrix" values="0 0 0 0 0 0 0 0 0 0 0 0 0 0 0 0 0 0 0.25 0"/>
<feBlend mode="normal" in2="BackgroundImageFix" result="effect1_dropShadow_3_9233"/>
<feBlend mode="normal" in="SourceGraphic" in2="effect1_dropShadow_3_9233" result="shape"/>
</filter>
<filter id="filter9_d_3_9233" x="439" y="302.107" width="321" height="114.95" filterUnits="userSpaceOnUse" color-interpolation-filters="sRGB">
<feFlood flood-opacity="0" result="BackgroundImageFix"/>
<feColorMatrix in="SourceAlpha" type="matrix" values="0 0 0 0 0 0 0 0 0 0 0 0 0 0 0 0 0 0 127 0" result="hardAlpha"/>
<feOffset dx="1" dy="1"/>
<feGaussianBlur stdDeviation="1"/>
<feComposite in2="hardAlpha" operator="out"/>
<feColorMatrix type="matrix" values="0 0 0 0 0 0 0 0 0 0 0 0 0 0 0 0 0 0 0.25 0"/>
<feBlend mode="normal" in2="BackgroundImageFix" result="effect1_dropShadow_3_9233"/>
<feBlend mode="normal" in="SourceGraphic" in2="effect1_dropShadow_3_9233" result="shape"/>
</filter>
<filter id="filter10_d_3_9233" x="439" y="452.681" width="321" height="114.95" filterUnits="userSpaceOnUse" color-interpolation-filters="sRGB">
<feFlood flood-opacity="0" result="BackgroundImageFix"/>
<feColorMatrix in="SourceAlpha" type="matrix" values="0 0 0 0 0 0 0 0 0 0 0 0 0 0 0 0 0 0 127 0" result="hardAlpha"/>
<feOffset dx="1" dy="1"/>
<feGaussianBlur stdDeviation="1"/>
<feComposite in2="hardAlpha" operator="out"/>
<feColorMatrix type="matrix" values="0 0 0 0 0 0 0 0 0 0 0 0 0 0 0 0 0 0 0.25 0"/>
<feBlend mode="normal" in2="BackgroundImageFix" result="effect1_dropShadow_3_9233"/>
<feBlend mode="normal" in="SourceGraphic" in2="effect1_dropShadow_3_9233" result="shape"/>
</filter>
<filter id="filter11_d_3_9233" x="439" y="604.213" width="321" height="114.95" filterUnits="userSpaceOnUse" color-interpolation-filters="sRGB">
<feFlood flood-opacity="0" result="BackgroundImageFix"/>
<feColorMatrix in="SourceAlpha" type="matrix" values="0 0 0 0 0 0 0 0 0 0 0 0 0 0 0 0 0 0 127 0" result="hardAlpha"/>
<feOffset dx="1" dy="1"/>
<feGaussianBlur stdDeviation="1"/>
<feComposite in2="hardAlpha" operator="out"/>
<feColorMatrix type="matrix" values="0 0 0 0 0 0 0 0 0 0 0 0 0 0 0 0 0 0 0.25 0"/>
<feBlend mode="normal" in2="BackgroundImageFix" result="effect1_dropShadow_3_9233"/>
<feBlend mode="normal" in="SourceGraphic" in2="effect1_dropShadow_3_9233" result="shape"/>
</filter>
<filter id="filter12_d_3_9233" x="0" y="605" width="321" height="114.95" filterUnits="userSpaceOnUse" color-interpolation-filters="sRGB">
<feFlood flood-opacity="0" result="BackgroundImageFix"/>
<feColorMatrix in="SourceAlpha" type="matrix" values="0 0 0 0 0 0 0 0 0 0 0 0 0 0 0 0 0 0 127 0" result="hardAlpha"/>
<feOffset dx="1" dy="1"/>
<feGaussianBlur stdDeviation="1"/>
<feComposite in2="hardAlpha" operator="out"/>
<feColorMatrix type="matrix" values="0 0 0 0 0 0 0 0 0 0 0 0 0 0 0 0 0 0 0.25 0"/>
<feBlend mode="normal" in2="BackgroundImageFix" result="effect1_dropShadow_3_9233"/>
<feBlend mode="normal" in="SourceGraphic" in2="effect1_dropShadow_3_9233" result="shape"/>
</filter>
</defs>
</svg>
